<svg width="10" height="10" viewBox="0 0 10 10" fill="none" xmlns="http://www.w3.org/2000/svg">
<path d="M6.0594 5.0014L9.0295 2.0314C9.3195 1.7414 9.3195 1.26141 9.0295 0.971406C8.7395 0.681406 8.2595 0.681406 7.9695 0.971406L4.9995 3.9414L2.02945 0.971406C1.73945 0.681406 1.25945 0.681406 0.969453 0.971406C0.679453 1.26141 0.679453 1.7414 0.969453 2.0314L3.9395 5.0014L0.969453 7.9714C0.679453 8.2614 0.679453 8.7414 0.969453 9.0314C1.11945 9.1814 1.30945 9.2514 1.49945 9.2514C1.68945 9.2514 1.87945 9.1814 2.02945 9.0314L4.9995 6.0614L7.9695 9.0314C8.1195 9.1814 8.3095 9.2514 8.4995 9.2514C8.6895 9.2514 8.8795 9.1814 9.0295 9.0314C9.3195 8.7414 9.3195 8.2614 9.0295 7.9714L6.0594 5.0014Z" fill="#FF6E77"/>
</svg>
